{"title":"Justin Timberlake Ft. JAY Z - Suit &amp; Tie [Music Video] 720p ","uid":8399084,"size":60739340,"categoryP":"video","categoryS":"music_videos","magnet":"?xt=urn:btih:c2c7daf4e7e1da12ef657673d2e3c6dbb1dc34dc&amp;dn=Justin+Timberlake+Ft.+JAY+Z+-+Suit+%26amp%3B+Tie+%5BMusic+Video%5D+720p+&amp;tr=udp%3A%2F%2Ftracker.openbittorrent.com%3A80&amp;tr=udp%3A%2F%2Fopen.demonii.com%3A1337&amp;tr=udp%3A%2F%2Ftracker.coppersurfer.tk%3A6969&amp;tr=udp%3A%2F%2Fexodus.desync.com%3A6969","seeders":1,"leechers":1,"uploader":"Sbyky","files":-1,"time":1366648855,"description":"[IMG]http://www.shotpix.com/images/66598534859755088557.jpg[/IMG]\n\nGeneral\nComplete name                            : Justin Timberlake Ft. JAY Z - Suit &amp; Tie [Music Video] 720p [Sbyky].mp4\nFormat                                   : MPEG-4\nFormat profile                           : Base Media / Version 2\nCodec ID                                 : mp42\nFile size                                : 57.9 MiB\nDuration                                 : 5mn 30s\nOverall bit rate mode                    : Variable\nOverall bit rate                         : 1 472 Kbps\nEncoded date                             : UTC 2013-04-08 05:19:34\nTagged date                              : UTC 2013-04-08 05:19:34\n\nVideo\nID                                       : 1\nFormat                                   : AVC\nFormat/Info                              : Advanced Video Codec\nFormat profile                           : &lt;a class=&quot;__cf_email__&quot; href=&quot;/cdn-cgi/l/email-protection&quot; data-cfemail=&quot;e7af8e808fa7abd4c9d6&quot;&gt;[email&amp;#160;protected]&lt;/a&gt;&lt;script cf-hash='f9e31' type=&quot;text/javascript&quot;&gt;\n/* &lt;![CDATA[ */!function(){try{var t=&quot;currentScript&quot;in document?document.currentScript:function(){for(var t=document.getElementsByTagName(&quot;script&quot;),e=t.length;e--;)if(t[e].getAttribute(&quot;cf-hash&quot;))return t[e]}();if(t&amp;&amp;t.previousSibling){var e,r,n,i,c=t.previousSibling,a=c.getAttribute(&quot;data-cfemail&quot;);if(a){for(e=&quot;&quot;,r=parseInt(a.substr(0,2),16),n=2;a.length-n;n+=2)i=parseInt(a.substr(n,2),16)^r,e+=String.fromCharCode(i);e=document.createTextNode(e),c.parentNode.replaceChild(e,c)}}}catch(u){}}();/* ]]&gt; */&lt;/script&gt;\nFormat settings, CABAC                   : Yes\nFormat settings, ReFrames                : 1 frame\nCodec ID                                 : avc1\nCodec ID/Info                            : Advanced Video Coding\nDuration                                 : 5mn 29s\nBit rate                                 : 1 278 Kbps\nMaximum bit rate                         : 9 184 Kbps\nWidth                                    : 1 280 pixels\nHeight                                   : 720 pixels\nDisplay aspect ratio                     : 16:9\nFrame rate mode                          : Constant\nFrame rate                               : 23.976 fps\nColor space                              : YUV\nChroma subsampling                       : 4:2:0\nBit depth                                : 8 bits\nScan type                                : Progressive\nBits/(Pixel*Frame)                       : 0.058\nStream size                              : 50.3 MiB (87%)\nTagged date                              : UTC 2013-04-08 05:19:43\n\nAudio\nID                                       : 2\nFormat                                   : AAC\nFormat/Info                              : Advanced Audio Codec\nFormat profile                           : LC\nCodec ID                                 : 40\nDuration                                 : 5mn 30s\nBit rate mode                            : Variable\nBit rate                                 : 192 Kbps\nMaximum bit rate                         : 202 Kbps\nChannel(s)                               : 2 channels\nChannel positions                        : Front: L R\nSampling rate                            : 44.1 KHz\nCompression mode                         : Lossy\nStream size                              : 7.55 MiB (13%)\nTitle                                    : IsoMedia File Produced by Google, 5-11-2011\nEncoded date                             : UTC 2013-04-08 05:19:41\nTagged date                              : UTC 2013-04-08 05:19:43\n\nShared By Sbyky\n[IMG]http://www.shotpix.com/images/76014917432015785852.gif[/IMG]\n[IMG]http://www.shotpix.com/images/54100788659511547411.gif[/IMG]","torrent":{"xt":"urn:btih:c2c7daf4e7e1da12ef657673d2e3c6dbb1dc34dc","amp;dn":"Justin+Timberlake+Ft.+JAY+Z+-+Suit+%26amp%3B+Tie+%5BMusic+Video%5D+720p+","amp;tr":["udp%3A%2F%2Ftracker.openbittorrent.com%3A80","udp%3A%2F%2Fopen.demonii.com%3A1337","udp%3A%2F%2Ftracker.coppersurfer.tk%3A6969","udp%3A%2F%2Fexodus.desync.com%3A6969"],"infoHash":"c2c7daf4e7e1da12ef657673d2e3c6dbb1dc34dc","infoHashBuffer":{"type":"Buffer","data":[194,199,218,244,231,225,218,18,239,101,118,115,210,227,198,219,177,220,52,220]},"announce":[],"urlList":[]}}